# xmcd
#
# Track frame offsets:
#	150
#	16855
#	28327
#	40517
#	53140
#	66672
#	76532
#	87395
#	96602
#	110010
#	118897
#	134312
#	147152
#	157997
#
# Disc length: 2245 seconds
#
# Revision: 0
# Processed by: cddbd v1.5.2PL0 Copyright (c) Steve Scherf et al.
# Submitted via: audiograbber 1.83.01
#
DISCID=be08c30e
DTITLE=Patsy Cline - Greatest Hits
DYEAR=1994
DGENRE=Country
TTITLE0=Faded Love
TTITLE1=Sweet Dream (Of You)
TTITLE2=Crazy
TTITLE3=I Fall To Pieces
TTITLE4=So Wrong
TTITLE5=Strange
TTITLE6=South Of The Border
TTITLE7=Back In Baby's Arms
TTITLE8=She's Got You
TTITLE9=Walking After Midnight
TTITLE10=Why Can't He Be You
TTITLE11=You're Stronger Than Me
TTITLE12=Leavin' On Your Mind
TTITLE13=San Antonio Rose
EXTD=
EXTT0=
EXTT1=
EXTT2=
EXTT3=
EXTT4=
EXTT5=
EXTT6=
EXTT7=
EXTT8=
EXTT9=
EXTT10=
EXTT11=
EXTT12=
EXTT13=
PLAYORDER=
